<svg xmlns="http://www.w3.org/2000/svg" width="164.4" height="142.73" viewBox="0 0 164.4 142.73">
  <g id="b6a702be-adcf-489b-8bb1-9ce00407805a" data-name="Capa 2">
    <rect x="6" y="43.97" width="152.4" height="58.19" rx="19.65" style="fill: none;stroke: #0a65b0;stroke-miterlimit: 10;stroke-width: 12px"/>
    <path d="M53.84,145.74a6.05,6.05,0,0,1,6-6.05h66.9a6.05,6.05,0,0,1,6,6.05h0" transform="translate(-11.14 -43.57)" style="fill: none;stroke: #0a65b0;stroke-miterlimit: 10;stroke-width: 6px"/>
    <path d="M31.39,143.13a9.49,9.49,0,0,1,9.49-9.49H145.81a9.49,9.49,0,0,1,9.49,9.49h0" transform="translate(-11.14 -43.57)" style="fill: none;stroke: #0a65b0;stroke-miterlimit: 10;stroke-width: 12px"/>
    <path d="M26.55,141c.64-7.39,3.31-11.08,8.92-12.1l114.6-.13c3.06.39,10.57,3,10.32,12.55,2.34.17,3.34-1.34,4.2-5.67V97c0-9.43-41.11,8.25-77.17,8.4-25.87.42-47.46-1.91-60-10.06-2.08-1.73-5.34-3.18-5.34,0v40.75C22.1,141.18,25.18,141.91,26.55,141Z" transform="translate(-11.14 -43.57)" style="fill: #9ecaef"/>
    <circle cx="141.35" cy="62.18" r="6.52" style="fill: #0a65b0;stroke: #0a65b0;stroke-miterlimit: 10;stroke-width: 6px"/>
  </g>
  <g id="bd2c47be-7b58-4d92-b0da-3b575f434b1e" data-name="Capa 4">
    <g>
      <line x1="141.42" y1="56.5" x2="141.42" y2="67.87" style="fill: none;stroke: #9ecaef;stroke-linecap: round;stroke-miterlimit: 10;stroke-width: 2px"/>
      <line x1="146.34" y1="59.34" x2="136.49" y2="65.02" style="fill: none;stroke: #9ecaef;stroke-linecap: round;stroke-miterlimit: 10;stroke-width: 2px"/>
      <line x1="136.49" y1="59.34" x2="146.34" y2="65.02" style="fill: none;stroke: #9ecaef;stroke-linecap: round;stroke-miterlimit: 10;stroke-width: 2px"/>
      <polyline points="139.5 57.56 141.42 58.92 143.28 57.56" style="fill: none;stroke: #9ecaef;stroke-linecap: round;stroke-miterlimit: 10;stroke-width: 2px"/>
      <polyline points="136.58 61.55 138.7 60.53 138.4 58.24" style="fill: none;stroke: #9ecaef;stroke-linecap: round;stroke-miterlimit: 10;stroke-width: 2px"/>
      <polyline points="138.27 66.12 138.44 63.78 136.31 62.89" style="fill: none;stroke: #9ecaef;stroke-linecap: round;stroke-miterlimit: 10;stroke-width: 2px"/>
      <polyline points="139.5 66.81 141.42 65.44 143.28 66.81" style="fill: none;stroke: #9ecaef;stroke-linecap: round;stroke-miterlimit: 10;stroke-width: 2px"/>
      <polyline points="146.34 62.81 144.28 63.94 144.7 66.21" style="fill: none;stroke: #9ecaef;stroke-linecap: round;stroke-miterlimit: 10;stroke-width: 2px"/>
      <polyline points="144.38 58.29 144.24 60.64 146.38 61.5" style="fill: none;stroke: #9ecaef;stroke-linecap: round;stroke-miterlimit: 10;stroke-width: 2px"/>
    </g>
    <path d="M32.6,152H89.71v30.28c0,2.81-1.58,4-4.3,4a49.91,49.91,0,0,1-23.68-7.17H76.24c4.71-.13,7.84-1.72,7.83-6.2L84,169.15H79.19v2.63c0,1.78-1.06,2.37-3,2.29l-22.31.19a51.38,51.38,0,0,1-8.73-7H72.9c3.72,0,6.76-2.12,6.78-5.06V158.7H75.22c0,2.68-.24,3.69-2.32,3.73l-32.66-.06A67.38,67.38,0,0,1,32.6,152Z" transform="translate(-11.14 -43.57)" style="fill: #4994d2"/>
    <path d="M154.42,152H97.31v30.28c0,2.81,1.57,4,4.3,4a50,50,0,0,0,23.68-7.17H110.78c-4.71-.13-7.84-1.72-7.84-6.2l.1-3.78h4.79l0,2.63c0,1.78,1.07,2.37,3.06,2.29l22.3.19a51.06,51.06,0,0,0,8.74-7H114.12c-3.73,0-6.76-2.12-6.78-5.06V158.7h4.46c0,2.68.24,3.69,2.32,3.73l32.66-.06A68,68,0,0,0,154.42,152Z" transform="translate(-11.14 -43.57)" style="fill: #4994d2"/>
    <path d="M30.89,81.27C56.11,31,133,31,157.52,81.27" transform="translate(-11.14 -43.57)" style="fill: #4994d2"/>
    <g>
      <line x1="83.25" y1="5.01" x2="83.25" y2="34.42" style="fill: none;stroke: #9ecaef;stroke-linecap: round;stroke-miterlimit: 10;stroke-width: 5px"/>
      <line x1="95.98" y1="12.36" x2="70.51" y2="27.07" style="fill: none;stroke: #9ecaef;stroke-linecap: round;stroke-miterlimit: 10;stroke-width: 5px"/>
      <line x1="70.51" y1="12.36" x2="95.98" y2="27.07" style="fill: none;stroke: #9ecaef;stroke-linecap: round;stroke-miterlimit: 10;stroke-width: 5px"/>
      <polyline points="78.29 7.75 83.25 11.28 88.06 7.75" style="fill: none;stroke: #9ecaef;stroke-linecap: round;stroke-miterlimit: 10;stroke-width: 5px"/>
      <polyline points="70.74 18.08 76.23 15.44 75.45 9.51" style="fill: none;stroke: #9ecaef;stroke-linecap: round;stroke-miterlimit: 10;stroke-width: 5px"/>
      <polyline points="75.11 29.91 75.55 23.84 70.03 21.55" style="fill: none;stroke: #9ecaef;stroke-linecap: round;stroke-miterlimit: 10;stroke-width: 5px"/>
      <polyline points="78.29 31.68 83.25 28.15 88.06 31.68" style="fill: none;stroke: #9ecaef;stroke-linecap: round;stroke-miterlimit: 10;stroke-width: 5px"/>
      <polyline points="95.98 21.33 90.65 24.27 91.75 30.14" style="fill: none;stroke: #9ecaef;stroke-linecap: round;stroke-miterlimit: 10;stroke-width: 5px"/>
      <polyline points="90.91 9.65 90.54 15.73 96.09 17.95" style="fill: none;stroke: #9ecaef;stroke-linecap: round;stroke-miterlimit: 10;stroke-width: 5px"/>
    </g>
  </g>
</svg>
